<?xml version="1.0" encoding="utf-8"?>
<!-- Generator: Adobe Illustrator 22.1.0, SVG Export Plug-In . SVG Version: 6.00 Build 0)  -->
<svg version="1.1" id="f4673761-b724-4a95-a095-d2125482816e"
	 xmlns="http://www.w3.org/2000/svg" xmlns:xlink="http://www.w3.org/1999/xlink" x="0px" y="0px" viewBox="0 0 970 796"
	 style="enable-background:new 0 0 970 796;" xml:space="preserve">
<style type="text/css">
	.st0{opacity:0.23;fill:#6670D7;}
	.st1{fill:#6670D7;}
	.st2{fill:#2F2E41;}
</style>
<title>hologram</title>
<circle class="st0" cx="917" cy="200" r="53"/>
<circle class="st1" cx="917" cy="200" r="30"/>
<circle class="st0" cx="882" cy="53" r="53"/>
<circle class="st1" cx="882" cy="53" r="30"/>
<circle class="st0" cx="53" cy="253" r="53"/>
<circle class="st1" cx="53" cy="253" r="30"/>
<circle class="st0" cx="100" cy="665" r="53"/>
<circle class="st1" cx="100" cy="665" r="30"/>
<circle class="st0" cx="172" cy="100" r="53"/>
<circle class="st1" cx="172" cy="100" r="30"/>
<path class="st0" d="M868,431c0,178.3-127.9,326.8-297,358.7c-0.7,0.1-1.3,0.2-2,0.4c-10.5,1.9-21.2,3.4-32,4.4
	c-0.7,0.1-1.3,0.1-2,0.2c-10.5,0.9-21.2,1.4-32,1.4c-0.7,0-1.3,0-2,0c-10.8-0.1-21.4-0.6-32-1.6c-0.7,0-1.3-0.1-2-0.2
	c-10.8-1.1-21.5-2.6-32-4.6c-0.7-0.1-1.3-0.2-2-0.4C264.9,756.6,138,608.6,138,431c0-201.6,163.4-365,365-365S868,229.4,868,431z"/>
<rect x="570" y="274.5" class="st1" width="2" height="296.5"/>
<rect x="570" y="147.4" class="st1" width="2" height="87.5"/>
<rect x="433" y="138.3" class="st1" width="2" height="432.7"/>
<rect x="467" y="100" class="st1" width="2" height="97.5"/>
<rect x="467" y="244" class="st1" width="2" height="296.6"/>
<path class="st1" d="M469,586.8v207.7c-0.7,0-1.3-0.1-2-0.2V586.8H469z"/>
<rect x="501" y="68" class="st1" width="2" height="275.3"/>
<path class="st1" d="M503,381.5V796c-0.7,0-1.3,0-2,0V381.5H503z"/>
<rect x="535" y="100" class="st1" width="2" height="382"/>
<rect x="535" y="523" class="st1" width="2" height="214.2"/>
<path class="st1" d="M537,782.5v11.9c-0.7,0.1-1.3,0.1-2,0.2v-12.1H537z"/>
<path class="st1" d="M571,623v166.7c-0.7,0.1-1.3,0.2-2,0.4V623H571z"/>
<path class="st1" d="M435,623v166.7c-0.7-0.1-1.3-0.2-2-0.4V623H435z"/>
<rect x="399" y="177" class="st1" width="2" height="62.4"/>
<rect x="399" y="286.3" class="st1" width="2" height="284.7"/>
<rect x="365" y="200" class="st1" width="2" height="371"/>
<rect x="331" y="230" class="st1" width="2" height="120.9"/>
<rect x="331" y="391" class="st1" width="2" height="180"/>
<rect x="297" y="262" class="st1" width="2" height="201.5"/>
<rect x="297" y="501" class="st1" width="2" height="70"/>
<rect x="263" y="292" class="st1" width="2" height="67.6"/>
<rect x="263" y="403.8" class="st1" width="2" height="167.2"/>
<rect x="229" y="308" class="st1" width="2" height="263"/>
<rect x="195" y="380" class="st1" width="2" height="86.9"/>
<rect x="195" y="506.6" class="st1" width="2" height="64.4"/>
<rect x="590.4" y="177" class="st1" width="1" height="377"/>
<rect x="637" y="200" class="st1" width="2" height="59.4"/>
<rect x="637" y="299.1" class="st1" width="2" height="271.9"/>
<rect x="671" y="257" class="st1" width="2" height="35"/>
<rect x="671" y="331.3" class="st1" width="2" height="173.9"/>
<rect x="671" y="540.6" class="st1" width="2" height="30.4"/>
<rect x="705" y="262" class="st1" width="2" height="309"/>
<rect x="739" y="292" class="st1" width="2" height="99"/>
<rect x="739" y="428.4" class="st1" width="2" height="142.6"/>
<rect x="773" y="308" class="st1" width="2" height="263"/>
<path class="st1" d="M434,624c-5.5,0-10-4.5-10-10s4.5-10,10-10s10,4.5,10,10C444,619.5,439.5,624,434,624z M434,606
	c-4.4,0-8,3.6-8,8s3.6,8,8,8s8-3.6,8-8C442,609.6,438.4,606,434,606z"/>
<path class="st1" d="M468,572c-5.5,0-10-4.5-10-10s4.5-10,10-10s10,4.5,10,10C478,567.5,473.5,572,468,572z M468,554
	c-4.4,0-8,3.6-8,8s3.6,8,8,8s8-3.6,8-8C476,557.6,472.4,554,468,554z"/>
<path class="st1" d="M571,624c-5.5,0-10-4.5-10-10s4.5-10,10-10s10,4.5,10,10C581,619.5,576.5,624,571,624z M571,606
	c-4.4,0-8,3.6-8,8s3.6,8,8,8s8-3.6,8-8C579,609.6,575.4,606,571,606z"/>
<path class="st1" d="M536,749c-5.5,0-10,4.5-10,10s4.5,10,10,10s10-4.5,10-10C546,753.5,541.5,749,536,749z M536,767
	c-4.4,0-8-3.6-8-8s3.6-8,8-8s8,3.6,8,8C544,763.4,540.4,767,536,767z"/>
<path class="st1" d="M536,511c-5.5,0-10-4.5-10-10s4.5-10,10-10s10,4.5,10,10C546,506.5,541.5,511,536,511z M536,493
	c-4.4,0-8,3.6-8,8s3.6,8,8,8s8-3.6,8-8C544,496.6,540.4,493,536,493z"/>
<path class="st1" d="M502,372c-5.5,0-10-4.5-10-10s4.5-10,10-10s10,4.5,10,10C512,367.5,507.5,372,502,372z"/>
<path class="st1" d="M570,263c-5.5,0-10-4.5-10-10s4.5-10,10-10s10,4.5,10,10C580,258.5,575.5,263,570,263z M570,245
	c-4.4,0-8,3.6-8,8s3.6,8,8,8s8-3.6,8-8C578,248.6,574.4,245,570,245z"/>
<path class="st1" d="M332,381c-5.5,0-10-4.5-10-10s4.5-10,10-10s10,4.5,10,10C342,376.5,337.5,381,332,381z M332,363
	c-4.4,0-8,3.6-8,8s3.6,8,8,8s8-3.6,8-8C340,366.6,336.4,363,332,363z"/>
<path class="st1" d="M264,390c-5.5,0-10-4.5-10-10s4.5-10,10-10s10,4.5,10,10C274,385.5,269.5,390,264,390z M264,372
	c-4.4,0-8,3.6-8,8s3.6,8,8,8s8-3.6,8-8C272,375.6,268.4,372,264,372z"/>
<path class="st1" d="M298,492c-5.5,0-10-4.5-10-10s4.5-10,10-10s10,4.5,10,10C308,487.5,303.5,492,298,492z"/>
<path class="st1" d="M571,148c-5.5,0-10-4.5-10-10s4.5-10,10-10s10,4.5,10,10C581,143.5,576.5,148,571,148z M571,130
	c-4.4,0-8,3.6-8,8s3.6,8,8,8s8-3.6,8-8C579,133.6,575.4,130,571,130z"/>
<path class="st1" d="M400,272c-5.5,0-10-4.5-10-10s4.5-10,10-10c5.5,0,10,4.5,10,10C410,267.5,405.5,272,400,272z M400,254
	c-4.4,0-8,3.6-8,8s3.6,8,8,8s8-3.6,8-8C408,257.6,404.4,254,400,254z"/>
<path class="st1" d="M366,201c-5.5,0-10-4.5-10-10s4.5-10,10-10s10,4.5,10,10C376,196.5,371.5,201,366,201z M366,183
	c-4.4,0-8,3.6-8,8s3.6,8,8,8s8-3.6,8-8C374,186.6,370.4,183,366,183z"/>
<path class="st1" d="M196,497c-5.5,0-10-4.5-10-10s4.5-10,10-10s10,4.5,10,10C206,492.5,201.5,497,196,497z M196,479
	c-4.4,0-8,3.6-8,8s3.6,8,8,8s8-3.6,8-8C204,482.6,200.4,479,196,479z"/>
<rect x="804" y="380" class="st1" width="2" height="86.9"/>
<rect x="804" y="506.6" class="st1" width="2" height="64.4"/>
<path class="st1" d="M805,497c-5.5,0-10-4.5-10-10s4.5-10,10-10s10,4.5,10,10C815,492.5,810.5,497,805,497z M805,479
	c-4.4,0-8,3.6-8,8s3.6,8,8,8s8-3.6,8-8C813,482.6,809.4,479,805,479z"/>
<path class="st1" d="M740,418c-5.5,0-10-4.5-10-10s4.5-10,10-10s10,4.5,10,10C750,413.5,745.5,418,740,418z M740,400
	c-4.4,0-8,3.6-8,8s3.6,8,8,8s8-3.6,8-8C748,403.6,744.4,400,740,400z"/>
<path class="st1" d="M672,533c-5.5,0-10-4.5-10-10s4.5-10,10-10s10,4.5,10,10C682,528.5,677.5,533,672,533z M672,515
	c-4.4,0-8,3.6-8,8s3.6,8,8,8s8-3.6,8-8C680,518.6,676.4,515,672,515z"/>
<path class="st1" d="M468,231c-5.5,0-10-4.5-10-10s4.5-10,10-10s10,4.5,10,10C478,226.5,473.5,231,468,231z"/>
<path class="st1" d="M672,322c-5.5,0-10-4.5-10-10s4.5-10,10-10s10,4.5,10,10C682,317.5,677.5,322,672,322z M672,304
	c-4.4,0-8,3.6-8,8s3.6,8,8,8s8-3.6,8-8C680,307.6,676.4,304,672,304z"/>
<path class="st1" d="M740,293c-5.5,0-10-4.5-10-10s4.5-10,10-10s10,4.5,10,10C750,288.5,745.5,293,740,293z"/>
<path class="st1" d="M638,288c-5.5,0-10-4.5-10-10s4.5-10,10-10s10,4.5,10,10C648,283.5,643.5,288,638,288z"/>
<polygon class="st2" points="918,288 739,285 739,283 916,286 916,200 918,200 "/>
<polygon class="st2" points="638.9,278.4 637.1,277.6 731.3,52 882,52 882,54 732.7,54 "/>
<polygon class="st2" points="503,363 52,363 52,254 54,254 54,361 503,361 "/>
<polygon class="st2" points="468,222 169,222 169,100 171,100 171,220 468,220 "/>
<polygon class="st2" points="299,666 100,666 100,664 297,664 297,481 299,481 "/>
</svg>
